<?xml version="1.0" standalone="no"?>
<!DOCTYPE svg PUBLIC "-//W3C//DTD SVG 20010904//EN"
 "http://www.w3.org/TR/2001/REC-SVG-20010904/DTD/svg10.dtd">
<svg version="1.0" xmlns="http://www.w3.org/2000/svg"
 width="290" height="80" viewBox="0 0 920.000000 512.000000"
 preserveAspectRatio="xMidYMid meet">

<g transform="translate(0.000000,512.000000) scale(0.100000,-0.100000)"
fill="#000000" stroke="none">
<path d="M3243 5099 c-63 -31 -83 -80 -83 -201 l0 -96 -287 -4 c-321 -5 -327
-6 -483 -81 -68 -33 -102 -59 -171 -127 -109 -108 -154 -193 -170 -320 -6 -56
-9 -675 -7 -1785 l3 -1700 23 -59 c58 -154 181 -276 347 -345 142 -59 166 -61
820 -61 l596 0 55 -44 c371 -303 918 -359 1357 -140 81 40 194 113 257 163 24
20 38 21 622 21 396 0 615 4 650 11 179 37 314 177 366 376 16 63 17 191 17
1848 l0 1780 -23 80 c-47 163 -132 274 -254 334 -87 43 -144 51 -343 51 l-173
0 -4 109 c-3 91 -7 115 -24 137 -54 73 -136 93 -213 52 -66 -34 -81 -70 -81
-195 l0 -103 -320 0 -320 0 0 97 c0 123 -20 172 -84 202 -53 26 -98 26 -154 1
-62 -28 -81 -76 -82 -202 l0 -98 -320 0 -320 0 0 98 c-1 126 -20 174 -82 202
-56 25 -101 25 -154 -1 -64 -30 -84 -79 -84 -202 l0 -97 -320 0 -320 0 0 103
c0 125 -15 161 -80 195 -55 28 -103 28 -157 1z m-81 -726 c4 -127 20 -162 83
-193 54 -26 101 -25 155 3 65 33 80 69 80 194 l0 103 320 0 320 0 0 -97 c0
-123 20 -172 84 -202 53 -26 98 -26 154 -1 62 28 81 76 82 203 l0 97 320 0
320 0 0 -97 c1 -127 20 -175 82 -203 56 -25 101 -25 154 1 64 30 84 79 84 202
l0 97 320 0 320 0 0 -103 c0 -125 15 -161 81 -195 77 -41 159 -21 213 52 17
22 21 46 24 137 l4 109 167 0 c153 0 170 -2 211 -22 83 -43 99 -113 100 -420
l0 -198 -182 0 c-171 0 -186 -2 -222 -23 -102 -58 -102 -216 0 -274 36 -21 51
-23 222 -23 l182 0 0 -1322 c0 -877 -4 -1345 -11 -1388 -12 -74 -32 -114 -72
-144 -28 -21 -38 -21 -501 -24 l-472 -3 42 88 c52 109 80 193 101 305 l17 87
317 3 c303 3 319 4 345 24 53 39 69 70 69 134 0 64 -16 95 -69 134 -26 20 -42
21 -346 24 l-318 3 -12 67 c-16 98 -75 265 -125 359 -257 483 -781 757 -1303
678 -129 -19 -251 -55 -356 -105 -375 -178 -648 -534 -716 -932 l-12 -67 -238
-3 c-262 -3 -263 -4 -314 -72 -29 -38 -29 -134 0 -172 51 -68 52 -69 313 -72
l237 -3 17 -87 c21 -112 49 -196 101 -304 l42 -88 -464 0 c-442 0 -465 1 -524
21 -116 39 -195 108 -218 190 -6 21 -10 528 -10 1351 l0 1318 1777 0 c1774 0
1777 0 1819 21 56 27 89 89 81 156 -5 49 -27 85 -71 117 l-27 21 -1790 3
-1789 2 0 193 c0 105 5 208 10 228 13 47 79 122 138 156 99 58 125 62 398 63
l252 0 4 -107z m1748 -2163 c162 -40 365 -159 470 -276 132 -147 214 -316 245
-506 19 -116 19 -168 0 -289 -47 -317 -240 -578 -529 -719 -145 -71 -248 -94
-416 -94 -173 0 -272 23 -425 99 -264 131 -444 361 -511 651 -22 95 -25 299
-5 389 85 388 368 671 754 755 118 25 291 22 417 -10z"/>
<path d="M2935 3026 c-126 -55 -120 -247 8 -295 18 -7 133 -11 301 -11 262 0
273 1 316 23 52 26 80 73 80 135 0 64 -33 120 -83 143 -38 17 -68 19 -317 18
-206 0 -283 -3 -305 -13z"/>
<path d="M3883 3019 c-109 -54 -108 -226 1 -278 40 -20 60 -21 316 -21 259 0
276 1 318 21 109 53 108 225 -2 278 -40 20 -60 21 -317 21 -257 0 -277 -1
-316 -21z"/>
<path d="M4841 3018 c-107 -53 -106 -230 3 -279 37 -17 69 -19 315 -19 257 0
277 1 317 21 48 23 84 82 84 139 0 57 -36 116 -84 139 -40 20 -60 21 -317 21
-261 0 -276 -1 -318 -22z"/>
<path d="M5803 3021 c-50 -23 -83 -79 -83 -143 0 -62 28 -109 81 -136 44 -22
46 -23 411 -20 352 3 368 4 394 24 53 39 69 70 69 134 0 64 -16 95 -69 134
-26 20 -41 21 -394 23 -344 3 -370 2 -409 -16z"/>
<path d="M2935 2226 c-126 -55 -120 -247 8 -295 18 -7 132 -11 300 -11 319 0
338 5 376 82 42 88 18 176 -59 216 -43 21 -53 22 -320 22 -206 -1 -283 -4
-305 -14z"/>
<path d="M5801 2218 c-53 -27 -81 -74 -81 -136 0 -65 33 -120 85 -143 42 -19
66 -20 409 -17 350 3 366 4 392 24 53 39 69 70 69 134 0 64 -16 95 -69 134
-26 20 -42 21 -394 24 -365 3 -367 2 -411 -20z"/>
<path d="M5095 1744 c-16 -8 -153 -137 -302 -287 l-273 -272 -112 112 c-62 61
-127 118 -145 127 -89 44 -199 -17 -219 -121 -13 -67 9 -99 195 -286 180 -182
207 -203 273 -213 31 -5 46 -1 85 24 26 17 195 179 374 359 344 346 359 364
345 436 -10 53 -43 97 -89 117 -51 24 -92 25 -132 4z"/>
</g>
</svg>
